<svg xmlns="http://www.w3.org/2000/svg" viewBox="0 0 515.3 102.8" fill='currentColor'><defs></defs><path class="a" d="M466.13,100.83a28.63,28.63,0,0,0,28.3,22.9c10.2,0,18.4-3.2,22.7-9.6h26.3c-6.8,18.2-26.3,30.5-48.9,30.5A50.94,50.94,0,0,1,443,93.33c0-28.4,22.3-51.4,50.8-51.4s50.9,22.9,50.9,51.3a46.8,46.8,0,0,1-.6,7.6Zm1-19.6h53.3c-3.2-10.4-14-18.8-26.7-18.8S470.33,70.73,467.13,81.23Z" transform="translate(-29.43 -41.83)"/><path class="a" d="M126.43,140.63h-22V90.33a26.5,26.5,0,1,0-53,0v50.3h-22V90.33a48.5,48.5,0,1,1,97,0Z" transform="translate(-29.43 -41.83)"/><path class="a" d="M286.63,140.53h-22V91.63a48.61,48.61,0,0,1,48.5-48.5v22a26.55,26.55,0,0,0-26.5,26.5Z" transform="translate(-29.43 -41.83)"/><path class="a" d="M409,100.83c-2.9,13.8-13.8,22.8-28.3,22.8-17.2,0-28.8-12.4-28.8-30.5s11.6-30.5,28.8-30.5a26.77,26.77,0,0,1,20.4,9L417.33,57c-9.2-9.4-21-15.2-36.7-15.2-29.5,0-51.3,21.8-51.3,51.3s21.8,51.3,51.3,51.3c26.5,0,47.1-18.3,50.6-43.6Z" transform="translate(-29.43 -41.83)"/><path class="a" d="M242.43,140.63h-94.2v-95h94.2Zm-73.2-21h52.2v-53h-52.2v53Z" transform="translate(-29.43 -41.83)"/></svg>